<?xml version="1.0" encoding="UTF-8" standalone="no"?>
<!DOCTYPE svg PUBLIC "-//W3C//DTD SVG 1.1//EN"
 "http://www.w3.org/Graphics/SVG/1.1/DTD/svg11.dtd">
<!-- Generated by graphviz version 2.40.1 (20161225.0304)
 -->
<!-- Title: dependencies Pages: 1 -->
<svg width="1852pt" height="284pt"
 viewBox="0.00 0.00 1852.00 284.00" xmlns="http://www.w3.org/2000/svg" xmlns:xlink="http://www.w3.org/1999/xlink">
<g id="graph0" class="graph" transform="scale(1 1) rotate(0) translate(4 280)">
<title>dependencies</title>
<polygon fill="#ffffff" stroke="transparent" points="-4,4 -4,-280 1848,-280 1848,4 -4,4"/>
<text text-anchor="start" x="901.0091" y="-42.4" font-family="sans-serif" font-weight="bold" font-size="14.00" fill="#000000">Legend</text>
<polygon fill="#ffffb3" stroke="transparent" points="688,-10 688,-30 708,-30 708,-10 688,-10"/>
<text text-anchor="start" x="711.629" y="-15.4" font-family="sans-serif" font-size="14.00" fill="#000000"> &#160;Declarations</text>
<polygon fill="#8dd3c7" stroke="transparent" points="801,-10 801,-30 821,-30 821,-10 801,-10"/>
<text text-anchor="start" x="824.7251" y="-15.4" font-family="sans-serif" font-size="14.00" fill="#000000"> &#160;Module</text>
<polygon fill="#80b1d3" stroke="transparent" points="887,-10 887,-30 907,-30 907,-10 887,-10"/>
<text text-anchor="start" x="910.7812" y="-15.4" font-family="sans-serif" font-size="14.00" fill="#000000"> &#160;Bootstrap</text>
<polygon fill="#fdb462" stroke="transparent" points="984,-10 984,-30 1004,-30 1004,-10 984,-10"/>
<text text-anchor="start" x="1007.6732" y="-15.4" font-family="sans-serif" font-size="14.00" fill="#000000"> &#160;Providers</text>
<polygon fill="#fb8072" stroke="transparent" points="1080,-10 1080,-30 1100,-30 1100,-10 1080,-10"/>
<text text-anchor="start" x="1103.7258" y="-15.4" font-family="sans-serif" font-size="14.00" fill="#000000"> &#160;Exports</text>
<g id="clust1" class="cluster">
<title>cluster_SharedModule</title>
<polygon fill="none" stroke="#000000" stroke-dasharray="1,5" points="8,-70 8,-268 1836,-268 1836,-70 8,-70"/>
</g>
<g id="clust2" class="cluster">
<title>cluster_SharedModule_declarations</title>
<polygon fill="none" stroke="#000000" points="16,-78 16,-130 1828,-130 1828,-78 16,-78"/>
</g>
<g id="clust15" class="cluster">
<title>cluster_SharedModule_exports</title>
<polygon fill="none" stroke="#000000" points="109,-208 109,-260 1780,-260 1780,-208 109,-208"/>
</g>
<!-- FileUploadComponent -->
<g id="node1" class="node">
<title>FileUploadComponent</title>
<polygon fill="#ffffb3" stroke="#000000" points="1820.323,-122 1675.677,-122 1675.677,-86 1820.323,-86 1820.323,-122"/>
<text text-anchor="middle" x="1748" y="-99.8" font-family="Times,serif" font-size="14.00" fill="#000000">FileUploadComponent</text>
</g>
<!-- SharedModule -->
<g id="node12" class="node">
<title>SharedModule</title>
<polygon fill="#8dd3c7" stroke="#000000" points="996.4231,-187 993.4231,-191 972.4231,-191 969.4231,-187 897.5769,-187 897.5769,-151 996.4231,-151 996.4231,-187"/>
<text text-anchor="middle" x="947" y="-164.8" font-family="Times,serif" font-size="14.00" fill="#000000">SharedModule</text>
</g>
<!-- FileUploadComponent&#45;&gt;SharedModule -->
<g id="edge1" class="edge">
<title>FileUploadComponent&#45;&gt;SharedModule</title>
<path fill="none" stroke="#000000" d="M1723.875,-122.1061C1723.875,-141.3391 1723.875,-169 1723.875,-169 1723.875,-169 1006.4822,-169 1006.4822,-169"/>
<polygon fill="#000000" stroke="#000000" points="1006.4823,-165.5001 996.4822,-169 1006.4822,-172.5001 1006.4823,-165.5001"/>
</g>
<!-- DropdownDirective -->
<g id="node2" class="node">
<title>DropdownDirective</title>
<polygon fill="#ffffb3" stroke="#000000" points="1657.9566,-122 1530.0434,-122 1530.0434,-86 1657.9566,-86 1657.9566,-122"/>
<text text-anchor="middle" x="1594" y="-99.8" font-family="Times,serif" font-size="14.00" fill="#000000">DropdownDirective</text>
</g>
<!-- DropdownDirective&#45;&gt;SharedModule -->
<g id="edge2" class="edge">
<title>DropdownDirective&#45;&gt;SharedModule</title>
<path fill="none" stroke="#000000" d="M1567.9034,-122.2667C1567.9034,-140.5552 1567.9034,-166 1567.9034,-166 1567.9034,-166 1006.2402,-166 1006.2402,-166"/>
<polygon fill="#000000" stroke="#000000" points="1006.2403,-162.5001 996.2402,-166 1006.2402,-169.5001 1006.2403,-162.5001"/>
</g>
<!-- TimeDurationPipe -->
<g id="node3" class="node">
<title>TimeDurationPipe</title>
<polygon fill="#ffffb3" stroke="#000000" points="1512.1994,-122 1391.8006,-122 1391.8006,-86 1512.1994,-86 1512.1994,-122"/>
<text text-anchor="middle" x="1452" y="-99.8" font-family="Times,serif" font-size="14.00" fill="#000000">TimeDurationPipe</text>
</g>
<!-- TimeDurationPipe&#45;&gt;SharedModule -->
<g id="edge3" class="edge">
<title>TimeDurationPipe&#45;&gt;SharedModule</title>
<path fill="none" stroke="#000000" d="M1397.9879,-122.0336C1397.9879,-139.0597 1397.9879,-162 1397.9879,-162 1397.9879,-162 1006.5537,-162 1006.5537,-162"/>
<polygon fill="#000000" stroke="#000000" points="1006.5537,-158.5001 996.5537,-162 1006.5536,-165.5001 1006.5537,-158.5001"/>
</g>
<!-- PeriodDatePickerComponent -->
<g id="node4" class="node">
<title>PeriodDatePickerComponent</title>
<polygon fill="#ffffb3" stroke="#000000" points="1374.0702,-122 1193.9298,-122 1193.9298,-86 1374.0702,-86 1374.0702,-122"/>
<text text-anchor="middle" x="1284" y="-99.8" font-family="Times,serif" font-size="14.00" fill="#000000">PeriodDatePickerComponent</text>
</g>
<!-- PeriodDatePickerComponent&#45;&gt;SharedModule -->
<g id="edge4" class="edge">
<title>PeriodDatePickerComponent&#45;&gt;SharedModule</title>
<path fill="none" stroke="#000000" d="M1222.1576,-122.0091C1222.1576,-138.0494 1222.1576,-159 1222.1576,-159 1222.1576,-159 1006.5105,-159 1006.5105,-159"/>
<polygon fill="#000000" stroke="#000000" points="1006.5105,-155.5001 996.5105,-159 1006.5104,-162.5001 1006.5105,-155.5001"/>
</g>
<!-- TagInputComponent -->
<g id="node5" class="node">
<title>TagInputComponent</title>
<polygon fill="#ffffb3" stroke="#000000" points="1176.1513,-122 1043.8487,-122 1043.8487,-86 1176.1513,-86 1176.1513,-122"/>
<text text-anchor="middle" x="1110" y="-99.8" font-family="Times,serif" font-size="14.00" fill="#000000">TagInputComponent</text>
</g>
<!-- TagInputComponent&#45;&gt;SharedModule -->
<g id="edge5" class="edge">
<title>TagInputComponent&#45;&gt;SharedModule</title>
<path fill="none" stroke="#000000" d="M1065.5391,-122.1243C1065.5391,-136.7832 1065.5391,-155 1065.5391,-155 1065.5391,-155 1006.2414,-155 1006.2414,-155"/>
<polygon fill="#000000" stroke="#000000" points="1006.2415,-151.5001 996.2414,-155 1006.2414,-158.5001 1006.2415,-151.5001"/>
</g>
<!-- TagInputItemComponent -->
<g id="node6" class="node">
<title>TagInputItemComponent</title>
<polygon fill="#ffffb3" stroke="#000000" points="1026.3075,-122 867.6925,-122 867.6925,-86 1026.3075,-86 1026.3075,-122"/>
<text text-anchor="middle" x="947" y="-99.8" font-family="Times,serif" font-size="14.00" fill="#000000">TagInputItemComponent</text>
</g>
<!-- TagInputItemComponent&#45;&gt;SharedModule -->
<g id="edge6" class="edge">
<title>TagInputItemComponent&#45;&gt;SharedModule</title>
<path fill="none" stroke="#000000" d="M947,-122.1061C947,-122.1061 947,-140.991 947,-140.991"/>
<polygon fill="#000000" stroke="#000000" points="943.5001,-140.9909 947,-150.991 950.5001,-140.991 943.5001,-140.9909"/>
</g>
<!-- FormErrorComponent -->
<g id="node7" class="node">
<title>FormErrorComponent</title>
<polygon fill="#ffffb3" stroke="#000000" points="849.7007,-122 708.2993,-122 708.2993,-86 849.7007,-86 849.7007,-122"/>
<text text-anchor="middle" x="779" y="-99.8" font-family="Times,serif" font-size="14.00" fill="#000000">FormErrorComponent</text>
</g>
<!-- FormErrorComponent&#45;&gt;SharedModule -->
<g id="edge7" class="edge">
<title>FormErrorComponent&#45;&gt;SharedModule</title>
<path fill="none" stroke="#000000" d="M779,-122.1243C779,-136.7832 779,-155 779,-155 779,-155 887.5031,-155 887.5031,-155"/>
<polygon fill="#000000" stroke="#000000" points="887.5031,-158.5001 897.5031,-155 887.5031,-151.5001 887.5031,-158.5001"/>
</g>
<!-- ImgCropeUploadComponent -->
<g id="node8" class="node">
<title>ImgCropeUploadComponent</title>
<polygon fill="#ffffb3" stroke="#000000" points="690.8075,-122 511.1925,-122 511.1925,-86 690.8075,-86 690.8075,-122"/>
<text text-anchor="middle" x="601" y="-99.8" font-family="Times,serif" font-size="14.00" fill="#000000">ImgCropeUploadComponent</text>
</g>
<!-- ImgCropeUploadComponent&#45;&gt;SharedModule -->
<g id="edge8" class="edge">
<title>ImgCropeUploadComponent&#45;&gt;SharedModule</title>
<path fill="none" stroke="#000000" d="M615.4541,-122.2819C615.4541,-137.9478 615.4541,-158 615.4541,-158 615.4541,-158 887.7222,-158 887.7222,-158"/>
<polygon fill="#000000" stroke="#000000" points="887.7223,-161.5001 897.7222,-158 887.7222,-154.5001 887.7223,-161.5001"/>
</g>
<!-- SelectDropdownComponent -->
<g id="node9" class="node">
<title>SelectDropdownComponent</title>
<polygon fill="#ffffb3" stroke="#000000" points="493.9143,-122 318.0857,-122 318.0857,-86 493.9143,-86 493.9143,-122"/>
<text text-anchor="middle" x="406" y="-99.8" font-family="Times,serif" font-size="14.00" fill="#000000">SelectDropdownComponent</text>
</g>
<!-- SelectDropdownComponent&#45;&gt;SharedModule -->
<g id="edge9" class="edge">
<title>SelectDropdownComponent&#45;&gt;SharedModule</title>
<path fill="none" stroke="#000000" d="M461.4893,-122.0352C461.4893,-138.7344 461.4893,-161 461.4893,-161 461.4893,-161 887.7748,-161 887.7748,-161"/>
<polygon fill="#000000" stroke="#000000" points="887.7748,-164.5001 897.7748,-161 887.7748,-157.5001 887.7748,-164.5001"/>
</g>
<!-- DblClickCopyDirective -->
<g id="node10" class="node">
<title>DblClickCopyDirective</title>
<polygon fill="#ffffb3" stroke="#000000" points="299.7492,-122 150.2508,-122 150.2508,-86 299.7492,-86 299.7492,-122"/>
<text text-anchor="middle" x="225" y="-99.8" font-family="Times,serif" font-size="14.00" fill="#000000">DblClickCopyDirective</text>
</g>
<!-- DblClickCopyDirective&#45;&gt;SharedModule -->
<g id="edge10" class="edge">
<title>DblClickCopyDirective&#45;&gt;SharedModule</title>
<path fill="none" stroke="#000000" d="M279.125,-122.302C279.125,-140.2699 279.125,-165 279.125,-165 279.125,-165 887.6183,-165 887.6183,-165"/>
<polygon fill="#000000" stroke="#000000" points="887.6184,-168.5001 897.6183,-165 887.6183,-161.5001 887.6184,-168.5001"/>
</g>
<!-- LinkComponent -->
<g id="node11" class="node">
<title>LinkComponent</title>
<polygon fill="#ffffb3" stroke="#000000" points="131.7758,-122 24.2242,-122 24.2242,-86 131.7758,-86 131.7758,-122"/>
<text text-anchor="middle" x="78" y="-99.8" font-family="Times,serif" font-size="14.00" fill="#000000">LinkComponent</text>
</g>
<!-- LinkComponent&#45;&gt;SharedModule -->
<g id="edge11" class="edge">
<title>LinkComponent&#45;&gt;SharedModule</title>
<path fill="none" stroke="#000000" d="M124.5191,-122.1686C124.5191,-141.0898 124.5191,-168 124.5191,-168 124.5191,-168 887.7082,-168 887.7082,-168"/>
<polygon fill="#000000" stroke="#000000" points="887.7082,-171.5001 897.7082,-168 887.7082,-164.5001 887.7082,-171.5001"/>
</g>
<!-- FileUploadComponent  -->
<g id="node13" class="node">
<title>FileUploadComponent </title>
<polygon fill="#fb8072" stroke="#000000" points="1771.8227,-252 1624.1773,-252 1624.1773,-216 1771.8227,-216 1771.8227,-252"/>
<text text-anchor="middle" x="1698" y="-229.8" font-family="Times,serif" font-size="14.00" fill="#000000">FileUploadComponent </text>
</g>
<!-- SharedModule&#45;&gt;FileUploadComponent  -->
<g id="edge12" class="edge">
<title>SharedModule&#45;&gt;FileUploadComponent </title>
<path fill="none" stroke="#000000" stroke-dasharray="5,2" d="M996.3568,-173C1154.915,-173 1641.0335,-173 1641.0335,-173 1641.0335,-173 1641.0335,-205.698 1641.0335,-205.698"/>
<polygon fill="#000000" stroke="#000000" points="1637.5336,-205.698 1641.0335,-215.698 1644.5336,-205.698 1637.5336,-205.698"/>
</g>
<!-- PeriodDatePickerComponent  -->
<g id="node14" class="node">
<title>PeriodDatePickerComponent </title>
<polygon fill="#fb8072" stroke="#000000" points="1605.5707,-252 1422.4293,-252 1422.4293,-216 1605.5707,-216 1605.5707,-252"/>
<text text-anchor="middle" x="1514" y="-229.8" font-family="Times,serif" font-size="14.00" fill="#000000">PeriodDatePickerComponent </text>
</g>
<!-- SharedModule&#45;&gt;PeriodDatePickerComponent  -->
<g id="edge13" class="edge">
<title>SharedModule&#45;&gt;PeriodDatePickerComponent </title>
<path fill="none" stroke="#000000" stroke-dasharray="5,2" d="M996.4041,-177C1126.2441,-177 1467.1573,-177 1467.1573,-177 1467.1573,-177 1467.1573,-205.9648 1467.1573,-205.9648"/>
<polygon fill="#000000" stroke="#000000" points="1463.6573,-205.9648 1467.1573,-215.9648 1470.6573,-205.9649 1463.6573,-205.9648"/>
</g>
<!-- TagInputComponent  -->
<g id="node15" class="node">
<title>TagInputComponent </title>
<polygon fill="#fb8072" stroke="#000000" points="1404.1509,-252 1267.8491,-252 1267.8491,-216 1404.1509,-216 1404.1509,-252"/>
<text text-anchor="middle" x="1336" y="-229.8" font-family="Times,serif" font-size="14.00" fill="#000000">TagInputComponent </text>
</g>
<!-- SharedModule&#45;&gt;TagInputComponent  -->
<g id="edge14" class="edge">
<title>SharedModule&#45;&gt;TagInputComponent </title>
<path fill="none" stroke="#000000" stroke-dasharray="5,2" d="M996.2759,-180C1097.8276,-180 1320.9799,-180 1320.9799,-180 1320.9799,-180 1320.9799,-205.7181 1320.9799,-205.7181"/>
<polygon fill="#000000" stroke="#000000" points="1317.4799,-205.718 1320.9799,-215.7181 1324.4799,-205.7181 1317.4799,-205.718"/>
</g>
<!-- FormErrorComponent  -->
<g id="node16" class="node">
<title>FormErrorComponent </title>
<polygon fill="#fb8072" stroke="#000000" points="1250.2009,-252 1105.7991,-252 1105.7991,-216 1250.2009,-216 1250.2009,-252"/>
<text text-anchor="middle" x="1178" y="-229.8" font-family="Times,serif" font-size="14.00" fill="#000000">FormErrorComponent </text>
</g>
<!-- SharedModule&#45;&gt;FormErrorComponent  -->
<g id="edge15" class="edge">
<title>SharedModule&#45;&gt;FormErrorComponent </title>
<path fill="none" stroke="#000000" stroke-dasharray="5,2" d="M996.4532,-184C1053.9268,-184 1140.9875,-184 1140.9875,-184 1140.9875,-184 1140.9875,-205.9489 1140.9875,-205.9489"/>
<polygon fill="#000000" stroke="#000000" points="1137.4876,-205.9488 1140.9875,-215.9489 1144.4876,-205.9489 1137.4876,-205.9488"/>
</g>
<!-- ImgCropeUploadComponent  -->
<g id="node17" class="node">
<title>ImgCropeUploadComponent </title>
<polygon fill="#fb8072" stroke="#000000" points="1087.3073,-252 904.6927,-252 904.6927,-216 1087.3073,-216 1087.3073,-252"/>
<text text-anchor="middle" x="996" y="-229.8" font-family="Times,serif" font-size="14.00" fill="#000000">ImgCropeUploadComponent </text>
</g>
<!-- SharedModule&#45;&gt;ImgCropeUploadComponent  -->
<g id="edge16" class="edge">
<title>SharedModule&#45;&gt;ImgCropeUploadComponent </title>
<path fill="none" stroke="#000000" stroke-dasharray="5,2" d="M950.4038,-187.1061C950.4038,-187.1061 950.4038,-205.991 950.4038,-205.991"/>
<polygon fill="#000000" stroke="#000000" points="946.9038,-205.9909 950.4038,-215.991 953.9038,-205.991 946.9038,-205.9909"/>
</g>
<!-- SelectDropdownComponent  -->
<g id="node18" class="node">
<title>SelectDropdownComponent </title>
<polygon fill="#fb8072" stroke="#000000" points="886.4138,-252 707.5862,-252 707.5862,-216 886.4138,-216 886.4138,-252"/>
<text text-anchor="middle" x="797" y="-229.8" font-family="Times,serif" font-size="14.00" fill="#000000">SelectDropdownComponent </text>
</g>
<!-- SharedModule&#45;&gt;SelectDropdownComponent  -->
<g id="edge17" class="edge">
<title>SharedModule&#45;&gt;SelectDropdownComponent </title>
<path fill="none" stroke="#000000" stroke-dasharray="5,2" d="M897.7307,-184C886.1726,-184 877.1517,-184 877.1517,-184 877.1517,-184 877.1517,-205.9489 877.1517,-205.9489"/>
<polygon fill="#000000" stroke="#000000" points="873.6517,-205.9488 877.1517,-215.9489 880.6517,-205.9489 873.6517,-205.9488"/>
</g>
<!-- LinkComponent  -->
<g id="node19" class="node">
<title>LinkComponent </title>
<polygon fill="#fb8072" stroke="#000000" points="689.7759,-252 578.2241,-252 578.2241,-216 689.7759,-216 689.7759,-252"/>
<text text-anchor="middle" x="634" y="-229.8" font-family="Times,serif" font-size="14.00" fill="#000000">LinkComponent </text>
</g>
<!-- SharedModule&#45;&gt;LinkComponent  -->
<g id="edge18" class="edge">
<title>SharedModule&#45;&gt;LinkComponent </title>
<path fill="none" stroke="#000000" stroke-dasharray="5,2" d="M897.715,-181C813.8911,-181 652.5459,-181 652.5459,-181 652.5459,-181 652.5459,-205.7604 652.5459,-205.7604"/>
<polygon fill="#000000" stroke="#000000" points="649.046,-205.7604 652.5459,-215.7604 656.046,-205.7604 649.046,-205.7604"/>
</g>
<!-- DropdownDirective  -->
<g id="node20" class="node">
<title>DropdownDirective </title>
<polygon fill="#fb8072" stroke="#000000" points="560.9574,-252 429.0426,-252 429.0426,-216 560.9574,-216 560.9574,-252"/>
<text text-anchor="middle" x="495" y="-229.8" font-family="Times,serif" font-size="14.00" fill="#000000">DropdownDirective </text>
</g>
<!-- SharedModule&#45;&gt;DropdownDirective  -->
<g id="edge19" class="edge">
<title>SharedModule&#45;&gt;DropdownDirective </title>
<path fill="none" stroke="#000000" stroke-dasharray="5,2" d="M897.4283,-178C788.1248,-178 536.0374,-178 536.0374,-178 536.0374,-178 536.0374,-205.973 536.0374,-205.973"/>
<polygon fill="#000000" stroke="#000000" points="532.5374,-205.973 536.0374,-215.973 539.5374,-205.973 532.5374,-205.973"/>
</g>
<!-- DblClickCopyDirective  -->
<g id="node21" class="node">
<title>DblClickCopyDirective </title>
<polygon fill="#fb8072" stroke="#000000" points="411.7492,-252 258.2508,-252 258.2508,-216 411.7492,-216 411.7492,-252"/>
<text text-anchor="middle" x="335" y="-229.8" font-family="Times,serif" font-size="14.00" fill="#000000">DblClickCopyDirective </text>
</g>
<!-- SharedModule&#45;&gt;DblClickCopyDirective  -->
<g id="edge20" class="edge">
<title>SharedModule&#45;&gt;DblClickCopyDirective </title>
<path fill="none" stroke="#000000" stroke-dasharray="5,2" d="M897.3755,-174C756.6217,-174 364.9588,-174 364.9588,-174 364.9588,-174 364.9588,-205.998 364.9588,-205.998"/>
<polygon fill="#000000" stroke="#000000" points="361.4589,-205.998 364.9588,-215.998 368.4589,-205.9981 361.4589,-205.998"/>
</g>
<!-- TimeDurationPipe  -->
<g id="node22" class="node">
<title>TimeDurationPipe </title>
<polygon fill="#fb8072" stroke="#000000" points="240.6996,-252 117.3004,-252 117.3004,-216 240.6996,-216 240.6996,-252"/>
<text text-anchor="middle" x="179" y="-229.8" font-family="Times,serif" font-size="14.00" fill="#000000">TimeDurationPipe </text>
</g>
<!-- SharedModule&#45;&gt;TimeDurationPipe  -->
<g id="edge21" class="edge">
<title>SharedModule&#45;&gt;TimeDurationPipe </title>
<path fill="none" stroke="#000000" stroke-dasharray="5,2" d="M897.6912,-171C730.4998,-171 195.4876,-171 195.4876,-171 195.4876,-171 195.4876,-205.7778 195.4876,-205.7778"/>
<polygon fill="#000000" stroke="#000000" points="191.9876,-205.7778 195.4876,-215.7778 198.9876,-205.7778 191.9876,-205.7778"/>
</g>
</g>
</svg>
