<?xml version="1.0" encoding="UTF-8" standalone="no"?>
<!DOCTYPE svg PUBLIC "-//W3C//DTD SVG 1.1//EN"
 "http://www.w3.org/Graphics/SVG/1.1/DTD/svg11.dtd">
<!-- Generated by graphviz version 2.40.1 (20161225.0304)
 -->
<!-- Title: dependencies Pages: 1 -->
<svg width="1057pt" height="211pt"
 viewBox="0.00 0.00 1057.00 211.00" xmlns="http://www.w3.org/2000/svg" xmlns:xlink="http://www.w3.org/1999/xlink">
<g id="graph0" class="graph" transform="scale(1 1) rotate(0) translate(4 207)">
<title>dependencies</title>
<polygon fill="#ffffff" stroke="transparent" points="-4,4 -4,-207 1053,-207 1053,4 -4,4"/>
<text text-anchor="start" x="503.5091" y="-42.4" font-family="sans-serif" font-weight="bold" font-size="14.00" fill="#000000">Legend</text>
<polygon fill="#ffffb3" stroke="transparent" points="290.5,-10 290.5,-30 310.5,-30 310.5,-10 290.5,-10"/>
<text text-anchor="start" x="314.129" y="-15.4" font-family="sans-serif" font-size="14.00" fill="#000000"> &#160;Declarations</text>
<polygon fill="#8dd3c7" stroke="transparent" points="403.5,-10 403.5,-30 423.5,-30 423.5,-10 403.5,-10"/>
<text text-anchor="start" x="427.2251" y="-15.4" font-family="sans-serif" font-size="14.00" fill="#000000"> &#160;Module</text>
<polygon fill="#80b1d3" stroke="transparent" points="489.5,-10 489.5,-30 509.5,-30 509.5,-10 489.5,-10"/>
<text text-anchor="start" x="513.2812" y="-15.4" font-family="sans-serif" font-size="14.00" fill="#000000"> &#160;Bootstrap</text>
<polygon fill="#fdb462" stroke="transparent" points="586.5,-10 586.5,-30 606.5,-30 606.5,-10 586.5,-10"/>
<text text-anchor="start" x="610.1732" y="-15.4" font-family="sans-serif" font-size="14.00" fill="#000000"> &#160;Providers</text>
<polygon fill="#fb8072" stroke="transparent" points="682.5,-10 682.5,-30 702.5,-30 702.5,-10 682.5,-10"/>
<text text-anchor="start" x="706.2258" y="-15.4" font-family="sans-serif" font-size="14.00" fill="#000000"> &#160;Exports</text>
<g id="clust1" class="cluster">
<title>cluster_AuthModule</title>
<polygon fill="none" stroke="#000000" stroke-dasharray="1,5" points="8,-70 8,-195 1041,-195 1041,-70 8,-70"/>
</g>
<g id="clust2" class="cluster">
<title>cluster_AuthModule_declarations</title>
<polygon fill="none" stroke="#000000" points="289,-78 289,-130 1033,-130 1033,-78 289,-78"/>
</g>
<g id="clust8" class="cluster">
<title>cluster_AuthModule_imports</title>
<polygon fill="none" stroke="#000000" points="16,-78 16,-130 281,-130 281,-78 16,-78"/>
</g>
<!-- AuthComponent -->
<g id="node1" class="node">
<title>AuthComponent</title>
<polygon fill="#ffffb3" stroke="#000000" points="1024.8301,-122 915.1699,-122 915.1699,-86 1024.8301,-86 1024.8301,-122"/>
<text text-anchor="middle" x="970" y="-99.8" font-family="Times,serif" font-size="14.00" fill="#000000">AuthComponent</text>
</g>
<!-- AuthModule -->
<g id="node6" class="node">
<title>AuthModule</title>
<polygon fill="#8dd3c7" stroke="#000000" points="579.5482,-187 576.5482,-191 555.5482,-191 552.5482,-187 492.4518,-187 492.4518,-151 579.5482,-151 579.5482,-187"/>
<text text-anchor="middle" x="536" y="-164.8" font-family="Times,serif" font-size="14.00" fill="#000000">AuthModule</text>
</g>
<!-- AuthComponent&#45;&gt;AuthModule -->
<g id="edge1" class="edge">
<title>AuthComponent&#45;&gt;AuthModule</title>
<path fill="none" stroke="#000000" d="M970,-122.2921C970,-144.2057 970,-178 970,-178 970,-178 589.6007,-178 589.6007,-178"/>
<polygon fill="#000000" stroke="#000000" points="589.6007,-174.5001 579.6007,-178 589.6006,-181.5001 589.6007,-174.5001"/>
</g>
<!-- SignInComponent -->
<g id="node2" class="node">
<title>SignInComponent</title>
<polygon fill="#ffffb3" stroke="#000000" points="897.1667,-122 778.8333,-122 778.8333,-86 897.1667,-86 897.1667,-122"/>
<text text-anchor="middle" x="838" y="-99.8" font-family="Times,serif" font-size="14.00" fill="#000000">SignInComponent</text>
</g>
<!-- SignInComponent&#45;&gt;AuthModule -->
<g id="edge2" class="edge">
<title>SignInComponent&#45;&gt;AuthModule</title>
<path fill="none" stroke="#000000" d="M838,-122.1061C838,-141.3391 838,-169 838,-169 838,-169 589.5909,-169 589.5909,-169"/>
<polygon fill="#000000" stroke="#000000" points="589.5909,-165.5001 579.5909,-169 589.5908,-172.5001 589.5909,-165.5001"/>
</g>
<!-- SignUpComponent -->
<g id="node3" class="node">
<title>SignUpComponent</title>
<polygon fill="#ffffb3" stroke="#000000" points="761.1123,-122 636.8877,-122 636.8877,-86 761.1123,-86 761.1123,-122"/>
<text text-anchor="middle" x="699" y="-99.8" font-family="Times,serif" font-size="14.00" fill="#000000">SignUpComponent</text>
</g>
<!-- SignUpComponent&#45;&gt;AuthModule -->
<g id="edge3" class="edge">
<title>SignUpComponent&#45;&gt;AuthModule</title>
<path fill="none" stroke="#000000" d="M699,-122.027C699,-138.3976 699,-160 699,-160 699,-160 589.681,-160 589.681,-160"/>
<polygon fill="#000000" stroke="#000000" points="589.681,-156.5001 579.681,-160 589.681,-163.5001 589.681,-156.5001"/>
</g>
<!-- ResetPasswordComponent -->
<g id="node4" class="node">
<title>ResetPasswordComponent</title>
<polygon fill="#ffffb3" stroke="#000000" points="619.087,-122 452.913,-122 452.913,-86 619.087,-86 619.087,-122"/>
<text text-anchor="middle" x="536" y="-99.8" font-family="Times,serif" font-size="14.00" fill="#000000">ResetPasswordComponent</text>
</g>
<!-- ResetPasswordComponent&#45;&gt;AuthModule -->
<g id="edge4" class="edge">
<title>ResetPasswordComponent&#45;&gt;AuthModule</title>
<path fill="none" stroke="#000000" d="M536,-122.1061C536,-122.1061 536,-140.991 536,-140.991"/>
<polygon fill="#000000" stroke="#000000" points="532.5001,-140.9909 536,-150.991 539.5001,-140.991 532.5001,-140.9909"/>
</g>
<!-- StartResetComponent -->
<g id="node5" class="node">
<title>StartResetComponent</title>
<polygon fill="#ffffb3" stroke="#000000" points="435.3725,-122 296.6275,-122 296.6275,-86 435.3725,-86 435.3725,-122"/>
<text text-anchor="middle" x="366" y="-99.8" font-family="Times,serif" font-size="14.00" fill="#000000">StartResetComponent</text>
</g>
<!-- StartResetComponent&#45;&gt;AuthModule -->
<g id="edge5" class="edge">
<title>StartResetComponent&#45;&gt;AuthModule</title>
<path fill="none" stroke="#000000" d="M366,-122.027C366,-138.3976 366,-160 366,-160 366,-160 482.2208,-160 482.2208,-160"/>
<polygon fill="#000000" stroke="#000000" points="482.2208,-163.5001 492.2208,-160 482.2207,-156.5001 482.2208,-163.5001"/>
</g>
<!-- AuthRoutingModule -->
<g id="node7" class="node">
<title>AuthRoutingModule</title>
<polygon fill="#8dd3c7" stroke="#000000" points="273.1652,-122 270.1652,-126 249.1652,-126 246.1652,-122 140.8348,-122 140.8348,-86 273.1652,-86 273.1652,-122"/>
<text text-anchor="middle" x="207" y="-99.8" font-family="Times,serif" font-size="14.00" fill="#000000">AuthRoutingModule</text>
</g>
<!-- AuthRoutingModule&#45;&gt;AuthModule -->
<g id="edge6" class="edge">
<title>AuthRoutingModule&#45;&gt;AuthModule</title>
<path fill="none" stroke="#000000" d="M207,-122.1061C207,-141.3391 207,-169 207,-169 207,-169 482.3113,-169 482.3113,-169"/>
<polygon fill="#000000" stroke="#000000" points="482.3114,-172.5001 492.3113,-169 482.3113,-165.5001 482.3114,-172.5001"/>
</g>
<!-- SharedModule -->
<g id="node8" class="node">
<title>SharedModule</title>
<polygon fill="#8dd3c7" stroke="#000000" points="122.4231,-122 119.4231,-126 98.4231,-126 95.4231,-122 23.5769,-122 23.5769,-86 122.4231,-86 122.4231,-122"/>
<text text-anchor="middle" x="73" y="-99.8" font-family="Times,serif" font-size="14.00" fill="#000000">SharedModule</text>
</g>
<!-- SharedModule&#45;&gt;AuthModule -->
<g id="edge7" class="edge">
<title>SharedModule&#45;&gt;AuthModule</title>
<path fill="none" stroke="#000000" d="M73,-122.2921C73,-144.2057 73,-178 73,-178 73,-178 482.4421,-178 482.4421,-178"/>
<polygon fill="#000000" stroke="#000000" points="482.4421,-181.5001 492.4421,-178 482.442,-174.5001 482.4421,-181.5001"/>
</g>
</g>
</svg>
