<?xml version="1.0" encoding="UTF-8" standalone="no"?>
<!DOCTYPE svg PUBLIC "-//W3C//DTD SVG 1.1//EN"
 "http://www.w3.org/Graphics/SVG/1.1/DTD/svg11.dtd">
<!-- Generated by graphviz version 2.40.1 (20161225.0304)
 -->
<!-- Title: dependencies Pages: 1 -->
<svg width="548pt" height="284pt"
 viewBox="0.00 0.00 548.00 284.00" xmlns="http://www.w3.org/2000/svg" xmlns:xlink="http://www.w3.org/1999/xlink">
<g id="graph0" class="graph" transform="scale(1 1) rotate(0) translate(4 280)">
<title>dependencies</title>
<polygon fill="#ffffff" stroke="transparent" points="-4,4 -4,-280 544,-280 544,4 -4,4"/>
<text text-anchor="start" x="249.0091" y="-42.4" font-family="sans-serif" font-weight="bold" font-size="14.00" fill="#000000">Legend</text>
<polygon fill="#ffffb3" stroke="transparent" points="36,-10 36,-30 56,-30 56,-10 36,-10"/>
<text text-anchor="start" x="59.629" y="-15.4" font-family="sans-serif" font-size="14.00" fill="#000000"> &#160;Declarations</text>
<polygon fill="#8dd3c7" stroke="transparent" points="149,-10 149,-30 169,-30 169,-10 149,-10"/>
<text text-anchor="start" x="172.7251" y="-15.4" font-family="sans-serif" font-size="14.00" fill="#000000"> &#160;Module</text>
<polygon fill="#80b1d3" stroke="transparent" points="235,-10 235,-30 255,-30 255,-10 235,-10"/>
<text text-anchor="start" x="258.7812" y="-15.4" font-family="sans-serif" font-size="14.00" fill="#000000"> &#160;Bootstrap</text>
<polygon fill="#fdb462" stroke="transparent" points="332,-10 332,-30 352,-30 352,-10 332,-10"/>
<text text-anchor="start" x="355.6732" y="-15.4" font-family="sans-serif" font-size="14.00" fill="#000000"> &#160;Providers</text>
<polygon fill="#fb8072" stroke="transparent" points="428,-10 428,-30 448,-30 448,-10 428,-10"/>
<text text-anchor="start" x="451.7258" y="-15.4" font-family="sans-serif" font-size="14.00" fill="#000000"> &#160;Exports</text>
<g id="clust1" class="cluster">
<title>cluster_CoreModule</title>
<polygon fill="none" stroke="#000000" stroke-dasharray="1,5" points="8,-70 8,-268 532,-268 532,-70 8,-70"/>
</g>
<g id="clust2" class="cluster">
<title>cluster_CoreModule_declarations</title>
<polygon fill="none" stroke="#000000" points="21,-78 21,-130 519,-130 519,-78 21,-78"/>
</g>
<g id="clust7" class="cluster">
<title>cluster_CoreModule_exports</title>
<polygon fill="none" stroke="#000000" points="16,-208 16,-260 524,-260 524,-208 16,-208"/>
</g>
<!-- SpinnerComponent -->
<g id="node1" class="node">
<title>SpinnerComponent</title>
<polygon fill="#ffffb3" stroke="#000000" points="511.3809,-122 386.6191,-122 386.6191,-86 511.3809,-86 511.3809,-122"/>
<text text-anchor="middle" x="449" y="-99.8" font-family="Times,serif" font-size="14.00" fill="#000000">SpinnerComponent</text>
</g>
<!-- CoreModule -->
<g id="node4" class="node">
<title>CoreModule</title>
<polygon fill="#8dd3c7" stroke="#000000" points="334.2619,-187 331.2619,-191 310.2619,-191 307.2619,-187 247.7381,-187 247.7381,-151 334.2619,-151 334.2619,-187"/>
<text text-anchor="middle" x="291" y="-164.8" font-family="Times,serif" font-size="14.00" fill="#000000">CoreModule</text>
</g>
<!-- SpinnerComponent&#45;&gt;CoreModule -->
<g id="edge1" class="edge">
<title>SpinnerComponent&#45;&gt;CoreModule</title>
<path fill="none" stroke="#000000" d="M470.2301,-122.0225C470.2301,-139.3734 470.2301,-163 470.2301,-163 470.2301,-163 344.3866,-163 344.3866,-163"/>
<polygon fill="#000000" stroke="#000000" points="344.3867,-159.5001 334.3866,-163 344.3866,-166.5001 344.3867,-159.5001"/>
</g>
<!-- NotificationsComponent -->
<g id="node2" class="node">
<title>NotificationsComponent</title>
<polygon fill="#ffffb3" stroke="#000000" points="368.427,-122 213.573,-122 213.573,-86 368.427,-86 368.427,-122"/>
<text text-anchor="middle" x="291" y="-99.8" font-family="Times,serif" font-size="14.00" fill="#000000">NotificationsComponent</text>
</g>
<!-- NotificationsComponent&#45;&gt;CoreModule -->
<g id="edge2" class="edge">
<title>NotificationsComponent&#45;&gt;CoreModule</title>
<path fill="none" stroke="#000000" d="M291,-122.1061C291,-122.1061 291,-140.991 291,-140.991"/>
<polygon fill="#000000" stroke="#000000" points="287.5001,-140.9909 291,-150.991 294.5001,-140.991 287.5001,-140.9909"/>
</g>
<!-- ConfirmDialogComponent -->
<g id="node3" class="node">
<title>ConfirmDialogComponent</title>
<polygon fill="#ffffb3" stroke="#000000" points="195.3738,-122 28.6262,-122 28.6262,-86 195.3738,-86 195.3738,-122"/>
<text text-anchor="middle" x="112" y="-99.8" font-family="Times,serif" font-size="14.00" fill="#000000">ConfirmDialogComponent</text>
</g>
<!-- ConfirmDialogComponent&#45;&gt;CoreModule -->
<g id="edge3" class="edge">
<title>ConfirmDialogComponent&#45;&gt;CoreModule</title>
<path fill="none" stroke="#000000" d="M138.979,-122.0225C138.979,-139.3734 138.979,-163 138.979,-163 138.979,-163 237.4369,-163 237.4369,-163"/>
<polygon fill="#000000" stroke="#000000" points="237.4369,-166.5001 247.4369,-163 237.4368,-159.5001 237.4369,-166.5001"/>
</g>
<!-- SpinnerComponent  -->
<g id="node5" class="node">
<title>SpinnerComponent </title>
<polygon fill="#fb8072" stroke="#000000" points="516.3814,-252 387.6186,-252 387.6186,-216 516.3814,-216 516.3814,-252"/>
<text text-anchor="middle" x="452" y="-229.8" font-family="Times,serif" font-size="14.00" fill="#000000">SpinnerComponent </text>
</g>
<!-- CoreModule&#45;&gt;SpinnerComponent  -->
<g id="edge4" class="edge">
<title>CoreModule&#45;&gt;SpinnerComponent </title>
<path fill="none" stroke="#000000" stroke-dasharray="5,2" d="M334.2917,-175C374.7684,-175 429.0199,-175 429.0199,-175 429.0199,-175 429.0199,-205.9775 429.0199,-205.9775"/>
<polygon fill="#000000" stroke="#000000" points="425.52,-205.9774 429.0199,-215.9775 432.52,-205.9775 425.52,-205.9774"/>
</g>
<!-- NotificationsComponent  -->
<g id="node6" class="node">
<title>NotificationsComponent </title>
<polygon fill="#fb8072" stroke="#000000" points="369.9264,-252 212.0736,-252 212.0736,-216 369.9264,-216 369.9264,-252"/>
<text text-anchor="middle" x="291" y="-229.8" font-family="Times,serif" font-size="14.00" fill="#000000">NotificationsComponent </text>
</g>
<!-- CoreModule&#45;&gt;NotificationsComponent  -->
<g id="edge5" class="edge">
<title>CoreModule&#45;&gt;NotificationsComponent </title>
<path fill="none" stroke="#000000" stroke-dasharray="5,2" d="M291,-187.1061C291,-187.1061 291,-205.991 291,-205.991"/>
<polygon fill="#000000" stroke="#000000" points="287.5001,-205.9909 291,-215.991 294.5001,-205.991 287.5001,-205.9909"/>
</g>
<!-- ConfirmDialogComponent  -->
<g id="node7" class="node">
<title>ConfirmDialogComponent </title>
<polygon fill="#fb8072" stroke="#000000" points="194.3742,-252 23.6258,-252 23.6258,-216 194.3742,-216 194.3742,-252"/>
<text text-anchor="middle" x="109" y="-229.8" font-family="Times,serif" font-size="14.00" fill="#000000">ConfirmDialogComponent </text>
</g>
<!-- CoreModule&#45;&gt;ConfirmDialogComponent  -->
<g id="edge6" class="edge">
<title>CoreModule&#45;&gt;ConfirmDialogComponent </title>
<path fill="none" stroke="#000000" stroke-dasharray="5,2" d="M247.558,-175C186.7918,-175 83.771,-175 83.771,-175 83.771,-175 83.771,-205.9775 83.771,-205.9775"/>
<polygon fill="#000000" stroke="#000000" points="80.2711,-205.9774 83.771,-215.9775 87.2711,-205.9775 80.2711,-205.9774"/>
</g>
</g>
</svg>
