<?xml version="1.0" encoding="UTF-8" standalone="no"?>
<!DOCTYPE svg PUBLIC "-//W3C//DTD SVG 1.1//EN"
 "http://www.w3.org/Graphics/SVG/1.1/DTD/svg11.dtd">
<!-- Generated by graphviz version 2.40.1 (20161225.0304)
 -->
<!-- Title: dependencies Pages: 1 -->
<svg width="1376pt" height="211pt"
 viewBox="0.00 0.00 1376.00 211.00" xmlns="http://www.w3.org/2000/svg" xmlns:xlink="http://www.w3.org/1999/xlink">
<g id="graph0" class="graph" transform="scale(1 1) rotate(0) translate(4 207)">
<title>dependencies</title>
<polygon fill="#ffffff" stroke="transparent" points="-4,4 -4,-207 1372,-207 1372,4 -4,4"/>
<text text-anchor="start" x="663.0091" y="-42.4" font-family="sans-serif" font-weight="bold" font-size="14.00" fill="#000000">Legend</text>
<polygon fill="#ffffb3" stroke="transparent" points="450,-10 450,-30 470,-30 470,-10 450,-10"/>
<text text-anchor="start" x="473.629" y="-15.4" font-family="sans-serif" font-size="14.00" fill="#000000"> &#160;Declarations</text>
<polygon fill="#8dd3c7" stroke="transparent" points="563,-10 563,-30 583,-30 583,-10 563,-10"/>
<text text-anchor="start" x="586.7251" y="-15.4" font-family="sans-serif" font-size="14.00" fill="#000000"> &#160;Module</text>
<polygon fill="#80b1d3" stroke="transparent" points="649,-10 649,-30 669,-30 669,-10 649,-10"/>
<text text-anchor="start" x="672.7812" y="-15.4" font-family="sans-serif" font-size="14.00" fill="#000000"> &#160;Bootstrap</text>
<polygon fill="#fdb462" stroke="transparent" points="746,-10 746,-30 766,-30 766,-10 746,-10"/>
<text text-anchor="start" x="769.6732" y="-15.4" font-family="sans-serif" font-size="14.00" fill="#000000"> &#160;Providers</text>
<polygon fill="#fb8072" stroke="transparent" points="842,-10 842,-30 862,-30 862,-10 842,-10"/>
<text text-anchor="start" x="865.7258" y="-15.4" font-family="sans-serif" font-size="14.00" fill="#000000"> &#160;Exports</text>
<g id="clust1" class="cluster">
<title>cluster_AdminModule</title>
<polygon fill="none" stroke="#000000" stroke-dasharray="1,5" points="8,-70 8,-195 1360,-195 1360,-70 8,-70"/>
</g>
<g id="clust2" class="cluster">
<title>cluster_AdminModule_declarations</title>
<polygon fill="none" stroke="#000000" points="598,-78 598,-130 1352,-130 1352,-78 598,-78"/>
</g>
<g id="clust8" class="cluster">
<title>cluster_AdminModule_imports</title>
<polygon fill="none" stroke="#000000" points="314,-78 314,-130 590,-130 590,-78 314,-78"/>
</g>
<g id="clust11" class="cluster">
<title>cluster_AdminModule_providers</title>
<polygon fill="none" stroke="#000000" points="16,-78 16,-130 306,-130 306,-78 16,-78"/>
</g>
<!-- AdminComponent -->
<g id="node1" class="node">
<title>AdminComponent</title>
<polygon fill="#ffffb3" stroke="#000000" points="1344.2204,-122 1223.7796,-122 1223.7796,-86 1344.2204,-86 1344.2204,-122"/>
<text text-anchor="middle" x="1284" y="-99.8" font-family="Times,serif" font-size="14.00" fill="#000000">AdminComponent</text>
</g>
<!-- AdminModule -->
<g id="node6" class="node">
<title>AdminModule</title>
<polygon fill="#8dd3c7" stroke="#000000" points="741.4386,-187 738.4386,-191 717.4386,-191 714.4386,-187 642.5614,-187 642.5614,-151 741.4386,-151 741.4386,-187"/>
<text text-anchor="middle" x="692" y="-164.8" font-family="Times,serif" font-size="14.00" fill="#000000">AdminModule</text>
</g>
<!-- AdminComponent&#45;&gt;AdminModule -->
<g id="edge1" class="edge">
<title>AdminComponent&#45;&gt;AdminModule</title>
<path fill="none" stroke="#000000" d="M1284,-122.0109C1284,-144.4852 1284,-180 1284,-180 1284,-180 751.4553,-180 751.4553,-180"/>
<polygon fill="#000000" stroke="#000000" points="751.4554,-176.5001 741.4553,-180 751.4553,-183.5001 751.4554,-176.5001"/>
</g>
<!-- InvitesComponent -->
<g id="node2" class="node">
<title>InvitesComponent</title>
<polygon fill="#ffffb3" stroke="#000000" points="1205.9342,-122 1086.0658,-122 1086.0658,-86 1205.9342,-86 1205.9342,-122"/>
<text text-anchor="middle" x="1146" y="-99.8" font-family="Times,serif" font-size="14.00" fill="#000000">InvitesComponent</text>
</g>
<!-- InvitesComponent&#45;&gt;AdminModule -->
<g id="edge2" class="edge">
<title>InvitesComponent&#45;&gt;AdminModule</title>
<path fill="none" stroke="#000000" d="M1146,-122.1289C1146,-142.5724 1146,-173 1146,-173 1146,-173 751.4502,-173 751.4502,-173"/>
<polygon fill="#000000" stroke="#000000" points="751.4502,-169.5001 741.4502,-173 751.4502,-176.5001 751.4502,-169.5001"/>
</g>
<!-- UsersComponent -->
<g id="node3" class="node">
<title>UsersComponent</title>
<polygon fill="#ffffb3" stroke="#000000" points="1068.7036,-122 955.2964,-122 955.2964,-86 1068.7036,-86 1068.7036,-122"/>
<text text-anchor="middle" x="1012" y="-99.8" font-family="Times,serif" font-size="14.00" fill="#000000">UsersComponent</text>
</g>
<!-- UsersComponent&#45;&gt;AdminModule -->
<g id="edge3" class="edge">
<title>UsersComponent&#45;&gt;AdminModule</title>
<path fill="none" stroke="#000000" d="M1012,-122.2667C1012,-140.5552 1012,-166 1012,-166 1012,-166 751.2987,-166 751.2987,-166"/>
<polygon fill="#000000" stroke="#000000" points="751.2987,-162.5001 741.2987,-166 751.2987,-169.5001 751.2987,-162.5001"/>
</g>
<!-- InvitesListComponent -->
<g id="node4" class="node">
<title>InvitesListComponent</title>
<polygon fill="#ffffb3" stroke="#000000" points="937.712,-122 796.288,-122 796.288,-86 937.712,-86 937.712,-122"/>
<text text-anchor="middle" x="867" y="-99.8" font-family="Times,serif" font-size="14.00" fill="#000000">InvitesListComponent</text>
</g>
<!-- InvitesListComponent&#45;&gt;AdminModule -->
<g id="edge4" class="edge">
<title>InvitesListComponent&#45;&gt;AdminModule</title>
<path fill="none" stroke="#000000" d="M867,-122.0091C867,-138.0494 867,-159 867,-159 867,-159 751.6799,-159 751.6799,-159"/>
<polygon fill="#000000" stroke="#000000" points="751.6799,-155.5001 741.6799,-159 751.6798,-162.5001 751.6799,-155.5001"/>
</g>
<!-- CreateCompanyComponent -->
<g id="node5" class="node">
<title>CreateCompanyComponent</title>
<polygon fill="#ffffb3" stroke="#000000" points="778.3061,-122 605.6939,-122 605.6939,-86 778.3061,-86 778.3061,-122"/>
<text text-anchor="middle" x="692" y="-99.8" font-family="Times,serif" font-size="14.00" fill="#000000">CreateCompanyComponent</text>
</g>
<!-- CreateCompanyComponent&#45;&gt;AdminModule -->
<g id="edge5" class="edge">
<title>CreateCompanyComponent&#45;&gt;AdminModule</title>
<path fill="none" stroke="#000000" d="M692,-122.1061C692,-122.1061 692,-140.991 692,-140.991"/>
<polygon fill="#000000" stroke="#000000" points="688.5001,-140.9909 692,-150.991 695.5001,-140.991 688.5001,-140.9909"/>
</g>
<!-- SharedModule -->
<g id="node7" class="node">
<title>SharedModule</title>
<polygon fill="#8dd3c7" stroke="#000000" points="582.4231,-122 579.4231,-126 558.4231,-126 555.4231,-122 483.5769,-122 483.5769,-86 582.4231,-86 582.4231,-122"/>
<text text-anchor="middle" x="533" y="-99.8" font-family="Times,serif" font-size="14.00" fill="#000000">SharedModule</text>
</g>
<!-- SharedModule&#45;&gt;AdminModule -->
<g id="edge6" class="edge">
<title>SharedModule&#45;&gt;AdminModule</title>
<path fill="none" stroke="#000000" d="M533,-122.0091C533,-138.0494 533,-159 533,-159 533,-159 632.563,-159 632.563,-159"/>
<polygon fill="#000000" stroke="#000000" points="632.563,-162.5001 642.563,-159 632.5629,-155.5001 632.563,-162.5001"/>
</g>
<!-- AdminRoutingModule -->
<g id="node8" class="node">
<title>AdminRoutingModule</title>
<polygon fill="#8dd3c7" stroke="#000000" points="465.5561,-122 462.5561,-126 441.5561,-126 438.5561,-122 322.4439,-122 322.4439,-86 465.5561,-86 465.5561,-122"/>
<text text-anchor="middle" x="394" y="-99.8" font-family="Times,serif" font-size="14.00" fill="#000000">AdminRoutingModule</text>
</g>
<!-- AdminRoutingModule&#45;&gt;AdminModule -->
<g id="edge7" class="edge">
<title>AdminRoutingModule&#45;&gt;AdminModule</title>
<path fill="none" stroke="#000000" d="M394,-122.2667C394,-140.5552 394,-166 394,-166 394,-166 632.4568,-166 632.4568,-166"/>
<polygon fill="#000000" stroke="#000000" points="632.4569,-169.5001 642.4568,-166 632.4568,-162.5001 632.4569,-169.5001"/>
</g>
<!-- InvitesService -->
<g id="node9" class="node">
<title>InvitesService</title>
<ellipse fill="#fdb462" stroke="#000000" cx="232" cy="-104" rx="66.0473" ry="18"/>
<text text-anchor="middle" x="232" y="-99.8" font-family="Times,serif" font-size="14.00" fill="#000000">InvitesService</text>
</g>
<!-- InvitesService&#45;&gt;AdminModule -->
<g id="edge8" class="edge">
<title>InvitesService&#45;&gt;AdminModule</title>
<path fill="none" stroke="#000000" d="M232,-122.1289C232,-142.5724 232,-173 232,-173 232,-173 632.7719,-173 632.7719,-173"/>
<polygon fill="#000000" stroke="#000000" points="632.772,-176.5001 642.7719,-173 632.7719,-169.5001 632.772,-176.5001"/>
</g>
<!-- UsersService -->
<g id="node10" class="node">
<title>UsersService</title>
<ellipse fill="#fdb462" stroke="#000000" cx="86" cy="-104" rx="61.9519" ry="18"/>
<text text-anchor="middle" x="86" y="-99.8" font-family="Times,serif" font-size="14.00" fill="#000000">UsersService</text>
</g>
<!-- UsersService&#45;&gt;AdminModule -->
<g id="edge9" class="edge">
<title>UsersService&#45;&gt;AdminModule</title>
<path fill="none" stroke="#000000" d="M86,-122.0109C86,-144.4852 86,-180 86,-180 86,-180 632.6654,-180 632.6654,-180"/>
<polygon fill="#000000" stroke="#000000" points="632.6655,-183.5001 642.6654,-180 632.6654,-176.5001 632.6655,-183.5001"/>
</g>
</g>
</svg>
