<?xml version="1.0" encoding="UTF-8" standalone="no"?>
<!DOCTYPE svg PUBLIC "-//W3C//DTD SVG 1.1//EN"
 "http://www.w3.org/Graphics/SVG/1.1/DTD/svg11.dtd">
<!-- Generated by graphviz version 2.40.1 (20161225.0304)
 -->
<!-- Title: dependencies Pages: 1 -->
<svg width="504pt" height="284pt"
 viewBox="0.00 0.00 504.00 284.00" xmlns="http://www.w3.org/2000/svg" xmlns:xlink="http://www.w3.org/1999/xlink">
<g id="graph0" class="graph" transform="scale(1 1) rotate(0) translate(4 280)">
<title>dependencies</title>
<polygon fill="#ffffff" stroke="transparent" points="-4,4 -4,-280 500,-280 500,4 -4,4"/>
<text text-anchor="start" x="227.0091" y="-42.4" font-family="sans-serif" font-weight="bold" font-size="14.00" fill="#000000">Legend</text>
<polygon fill="#ffffb3" stroke="transparent" points="14,-10 14,-30 34,-30 34,-10 14,-10"/>
<text text-anchor="start" x="37.629" y="-15.4" font-family="sans-serif" font-size="14.00" fill="#000000"> &#160;Declarations</text>
<polygon fill="#8dd3c7" stroke="transparent" points="127,-10 127,-30 147,-30 147,-10 127,-10"/>
<text text-anchor="start" x="150.7251" y="-15.4" font-family="sans-serif" font-size="14.00" fill="#000000"> &#160;Module</text>
<polygon fill="#80b1d3" stroke="transparent" points="213,-10 213,-30 233,-30 233,-10 213,-10"/>
<text text-anchor="start" x="236.7812" y="-15.4" font-family="sans-serif" font-size="14.00" fill="#000000"> &#160;Bootstrap</text>
<polygon fill="#fdb462" stroke="transparent" points="310,-10 310,-30 330,-30 330,-10 310,-10"/>
<text text-anchor="start" x="333.6732" y="-15.4" font-family="sans-serif" font-size="14.00" fill="#000000"> &#160;Providers</text>
<polygon fill="#fb8072" stroke="transparent" points="406,-10 406,-30 426,-30 426,-10 406,-10"/>
<text text-anchor="start" x="429.7258" y="-15.4" font-family="sans-serif" font-size="14.00" fill="#000000"> &#160;Exports</text>
<g id="clust1" class="cluster">
<title>cluster_ContactModule</title>
<polygon fill="none" stroke="#000000" stroke-dasharray="1,5" points="27,-70 27,-268 469,-268 469,-70 27,-70"/>
</g>
<g id="clust2" class="cluster">
<title>cluster_ContactModule_declarations</title>
<polygon fill="none" stroke="#000000" points="321,-78 321,-130 461,-130 461,-78 321,-78"/>
</g>
<g id="clust4" class="cluster">
<title>cluster_ContactModule_imports</title>
<polygon fill="none" stroke="#000000" points="199,-78 199,-130 313,-130 313,-78 199,-78"/>
</g>
<g id="clust5" class="cluster">
<title>cluster_ContactModule_exports</title>
<polygon fill="none" stroke="#000000" points="184,-208 184,-260 328,-260 328,-208 184,-208"/>
</g>
<g id="clust7" class="cluster">
<title>cluster_ContactModule_providers</title>
<polygon fill="none" stroke="#000000" points="35,-78 35,-130 191,-130 191,-78 35,-78"/>
</g>
<!-- ContactComponent -->
<g id="node1" class="node">
<title>ContactComponent</title>
<polygon fill="#ffffb3" stroke="#000000" points="453.3795,-122 328.6205,-122 328.6205,-86 453.3795,-86 453.3795,-122"/>
<text text-anchor="middle" x="391" y="-99.8" font-family="Times,serif" font-size="14.00" fill="#000000">ContactComponent</text>
</g>
<!-- ContactModule -->
<g id="node2" class="node">
<title>ContactModule</title>
<polygon fill="#8dd3c7" stroke="#000000" points="307.5968,-187 304.5968,-191 283.5968,-191 280.5968,-187 204.4032,-187 204.4032,-151 307.5968,-151 307.5968,-187"/>
<text text-anchor="middle" x="256" y="-164.8" font-family="Times,serif" font-size="14.00" fill="#000000">ContactModule</text>
</g>
<!-- ContactComponent&#45;&gt;ContactModule -->
<g id="edge1" class="edge">
<title>ContactComponent&#45;&gt;ContactModule</title>
<path fill="none" stroke="#000000" d="M391,-122.1061C391,-141.3391 391,-169 391,-169 391,-169 317.8084,-169 317.8084,-169"/>
<polygon fill="#000000" stroke="#000000" points="317.8085,-165.5001 307.8084,-169 317.8084,-172.5001 317.8085,-165.5001"/>
</g>
<!-- ContactComponent  -->
<g id="node4" class="node">
<title>ContactComponent </title>
<polygon fill="#fb8072" stroke="#000000" points="320.38,-252 191.62,-252 191.62,-216 320.38,-216 320.38,-252"/>
<text text-anchor="middle" x="256" y="-229.8" font-family="Times,serif" font-size="14.00" fill="#000000">ContactComponent </text>
</g>
<!-- ContactModule&#45;&gt;ContactComponent  -->
<g id="edge3" class="edge">
<title>ContactModule&#45;&gt;ContactComponent </title>
<path fill="none" stroke="#000000" stroke-dasharray="5,2" d="M256,-187.1061C256,-187.1061 256,-205.991 256,-205.991"/>
<polygon fill="#000000" stroke="#000000" points="252.5001,-205.9909 256,-215.991 259.5001,-205.991 252.5001,-205.9909"/>
</g>
<!-- SharedModule -->
<g id="node3" class="node">
<title>SharedModule</title>
<polygon fill="#8dd3c7" stroke="#000000" points="305.4231,-122 302.4231,-126 281.4231,-126 278.4231,-122 206.5769,-122 206.5769,-86 305.4231,-86 305.4231,-122"/>
<text text-anchor="middle" x="256" y="-99.8" font-family="Times,serif" font-size="14.00" fill="#000000">SharedModule</text>
</g>
<!-- SharedModule&#45;&gt;ContactModule -->
<g id="edge2" class="edge">
<title>SharedModule&#45;&gt;ContactModule</title>
<path fill="none" stroke="#000000" d="M256,-122.1061C256,-122.1061 256,-140.991 256,-140.991"/>
<polygon fill="#000000" stroke="#000000" points="252.5001,-140.9909 256,-150.991 259.5001,-140.991 252.5001,-140.9909"/>
</g>
<!-- ContactService -->
<g id="node5" class="node">
<title>ContactService</title>
<ellipse fill="#fdb462" stroke="#000000" cx="113" cy="-104" rx="70.0596" ry="18"/>
<text text-anchor="middle" x="113" y="-99.8" font-family="Times,serif" font-size="14.00" fill="#000000">ContactService</text>
</g>
<!-- ContactService&#45;&gt;ContactModule -->
<g id="edge4" class="edge">
<title>ContactService&#45;&gt;ContactModule</title>
<path fill="none" stroke="#000000" d="M113,-122.1061C113,-141.3391 113,-169 113,-169 113,-169 194.3737,-169 194.3737,-169"/>
<polygon fill="#000000" stroke="#000000" points="194.3738,-172.5001 204.3737,-169 194.3737,-165.5001 194.3738,-172.5001"/>
</g>
</g>
</svg>
