<?xml version="1.0" encoding="UTF-8" standalone="no"?>
<!DOCTYPE svg PUBLIC "-//W3C//DTD SVG 1.1//EN"
 "http://www.w3.org/Graphics/SVG/1.1/DTD/svg11.dtd">
<!-- Generated by graphviz version 2.40.1 (20161225.0304)
 -->
<!-- Title: dependencies Pages: 1 -->
<svg width="1934pt" height="284pt"
 viewBox="0.00 0.00 1934.00 284.00" xmlns="http://www.w3.org/2000/svg" xmlns:xlink="http://www.w3.org/1999/xlink">
<g id="graph0" class="graph" transform="scale(1 1) rotate(0) translate(4 280)">
<title>dependencies</title>
<polygon fill="#ffffff" stroke="transparent" points="-4,4 -4,-280 1930,-280 1930,4 -4,4"/>
<text text-anchor="start" x="942.0091" y="-42.4" font-family="sans-serif" font-weight="bold" font-size="14.00" fill="#000000">Legend</text>
<polygon fill="#ffffb3" stroke="transparent" points="729,-10 729,-30 749,-30 749,-10 729,-10"/>
<text text-anchor="start" x="752.629" y="-15.4" font-family="sans-serif" font-size="14.00" fill="#000000"> &#160;Declarations</text>
<polygon fill="#8dd3c7" stroke="transparent" points="842,-10 842,-30 862,-30 862,-10 842,-10"/>
<text text-anchor="start" x="865.7251" y="-15.4" font-family="sans-serif" font-size="14.00" fill="#000000"> &#160;Module</text>
<polygon fill="#80b1d3" stroke="transparent" points="928,-10 928,-30 948,-30 948,-10 928,-10"/>
<text text-anchor="start" x="951.7812" y="-15.4" font-family="sans-serif" font-size="14.00" fill="#000000"> &#160;Bootstrap</text>
<polygon fill="#fdb462" stroke="transparent" points="1025,-10 1025,-30 1045,-30 1045,-10 1025,-10"/>
<text text-anchor="start" x="1048.6732" y="-15.4" font-family="sans-serif" font-size="14.00" fill="#000000"> &#160;Providers</text>
<polygon fill="#fb8072" stroke="transparent" points="1121,-10 1121,-30 1141,-30 1141,-10 1121,-10"/>
<text text-anchor="start" x="1144.7258" y="-15.4" font-family="sans-serif" font-size="14.00" fill="#000000"> &#160;Exports</text>
<g id="clust1" class="cluster">
<title>cluster_AppModule</title>
<polygon fill="none" stroke="#000000" stroke-dasharray="1,5" points="8,-70 8,-268 1918,-268 1918,-70 8,-70"/>
</g>
<g id="clust2" class="cluster">
<title>cluster_AppModule_declarations</title>
<polygon fill="none" stroke="#000000" points="368,-78 368,-130 1910,-130 1910,-78 368,-78"/>
</g>
<g id="clust13" class="cluster">
<title>cluster_AppModule_imports</title>
<polygon fill="none" stroke="#000000" points="216,-78 216,-130 360,-130 360,-78 216,-78"/>
</g>
<g id="clust15" class="cluster">
<title>cluster_AppModule_bootstrap</title>
<polygon fill="none" stroke="#000000" points="914,-208 914,-260 1038,-260 1038,-208 914,-208"/>
</g>
<g id="clust16" class="cluster">
<title>cluster_AppModule_providers</title>
<polygon fill="none" stroke="#000000" points="16,-78 16,-130 208,-130 208,-78 16,-78"/>
</g>
<!-- AppComponent -->
<g id="node1" class="node">
<title>AppComponent</title>
<polygon fill="#ffffb3" stroke="#000000" points="1901.9399,-122 1796.0601,-122 1796.0601,-86 1901.9399,-86 1901.9399,-122"/>
<text text-anchor="middle" x="1849" y="-99.8" font-family="Times,serif" font-size="14.00" fill="#000000">AppComponent</text>
</g>
<!-- AppModule -->
<g id="node11" class="node">
<title>AppModule</title>
<polygon fill="#8dd3c7" stroke="#000000" points="1017.6571,-187 1014.6571,-191 993.6571,-191 990.6571,-187 934.3429,-187 934.3429,-151 1017.6571,-151 1017.6571,-187"/>
<text text-anchor="middle" x="976" y="-164.8" font-family="Times,serif" font-size="14.00" fill="#000000">AppModule</text>
</g>
<!-- AppComponent&#45;&gt;AppModule -->
<g id="edge1" class="edge">
<title>AppComponent&#45;&gt;AppModule</title>
<path fill="none" stroke="#000000" d="M1849,-122.2479C1849,-145.0179 1849,-181 1849,-181 1849,-181 1027.8125,-181 1027.8125,-181"/>
<polygon fill="#000000" stroke="#000000" points="1027.8125,-177.5001 1017.8125,-181 1027.8125,-184.5001 1027.8125,-177.5001"/>
</g>
<!-- BreadcrumbsComponent -->
<g id="node2" class="node">
<title>BreadcrumbsComponent</title>
<polygon fill="#ffffb3" stroke="#000000" points="1777.9692,-122 1622.0308,-122 1622.0308,-86 1777.9692,-86 1777.9692,-122"/>
<text text-anchor="middle" x="1700" y="-99.8" font-family="Times,serif" font-size="14.00" fill="#000000">BreadcrumbsComponent</text>
</g>
<!-- BreadcrumbsComponent&#45;&gt;AppModule -->
<g id="edge2" class="edge">
<title>BreadcrumbsComponent&#45;&gt;AppModule</title>
<path fill="none" stroke="#000000" d="M1700,-122.2843C1700,-143.3211 1700,-175 1700,-175 1700,-175 1027.7899,-175 1027.7899,-175"/>
<polygon fill="#000000" stroke="#000000" points="1027.7899,-171.5001 1017.7899,-175 1027.7898,-178.5001 1027.7899,-171.5001"/>
</g>
<!-- AsideToggleDirective -->
<g id="node3" class="node">
<title>AsideToggleDirective</title>
<polygon fill="#ffffb3" stroke="#000000" points="1604.3976,-122 1463.6024,-122 1463.6024,-86 1604.3976,-86 1604.3976,-122"/>
<text text-anchor="middle" x="1534" y="-99.8" font-family="Times,serif" font-size="14.00" fill="#000000">AsideToggleDirective</text>
</g>
<!-- AsideToggleDirective&#45;&gt;AppModule -->
<g id="edge3" class="edge">
<title>AsideToggleDirective&#45;&gt;AppModule</title>
<path fill="none" stroke="#000000" d="M1534,-122.1061C1534,-141.3391 1534,-169 1534,-169 1534,-169 1027.9407,-169 1027.9407,-169"/>
<polygon fill="#000000" stroke="#000000" points="1027.9407,-165.5001 1017.9407,-169 1027.9407,-172.5001 1027.9407,-165.5001"/>
</g>
<!-- SidebarComponent -->
<g id="node4" class="node">
<title>SidebarComponent</title>
<polygon fill="#ffffb3" stroke="#000000" points="1446.0954,-122 1321.9046,-122 1321.9046,-86 1446.0954,-86 1446.0954,-122"/>
<text text-anchor="middle" x="1384" y="-99.8" font-family="Times,serif" font-size="14.00" fill="#000000">SidebarComponent</text>
</g>
<!-- SidebarComponent&#45;&gt;AppModule -->
<g id="edge4" class="edge">
<title>SidebarComponent&#45;&gt;AppModule</title>
<path fill="none" stroke="#000000" d="M1384,-122.0225C1384,-139.3734 1384,-163 1384,-163 1384,-163 1027.7458,-163 1027.7458,-163"/>
<polygon fill="#000000" stroke="#000000" points="1027.7458,-159.5001 1017.7458,-163 1027.7457,-166.5001 1027.7458,-159.5001"/>
</g>
<!-- MainLayoutComponent -->
<g id="node5" class="node">
<title>MainLayoutComponent</title>
<polygon fill="#ffffb3" stroke="#000000" points="1304.0407,-122 1153.9593,-122 1153.9593,-86 1304.0407,-86 1304.0407,-122"/>
<text text-anchor="middle" x="1229" y="-99.8" font-family="Times,serif" font-size="14.00" fill="#000000">MainLayoutComponent</text>
</g>
<!-- MainLayoutComponent&#45;&gt;AppModule -->
<g id="edge5" class="edge">
<title>MainLayoutComponent&#45;&gt;AppModule</title>
<path fill="none" stroke="#000000" d="M1229,-122.2396C1229,-137.5706 1229,-157 1229,-157 1229,-157 1027.7778,-157 1027.7778,-157"/>
<polygon fill="#000000" stroke="#000000" points="1027.7778,-153.5001 1017.7778,-157 1027.7778,-160.5001 1027.7778,-153.5001"/>
</g>
<!-- EmptyLayoutComponent -->
<g id="node6" class="node">
<title>EmptyLayoutComponent</title>
<polygon fill="#ffffb3" stroke="#000000" points="1136.3243,-122 977.6757,-122 977.6757,-86 1136.3243,-86 1136.3243,-122"/>
<text text-anchor="middle" x="1057" y="-99.8" font-family="Times,serif" font-size="14.00" fill="#000000">EmptyLayoutComponent</text>
</g>
<!-- EmptyLayoutComponent&#45;&gt;AppModule -->
<g id="edge6" class="edge">
<title>EmptyLayoutComponent&#45;&gt;AppModule</title>
<path fill="none" stroke="#000000" d="M997.8331,-122.1061C997.8331,-122.1061 997.8331,-140.991 997.8331,-140.991"/>
<polygon fill="#000000" stroke="#000000" points="994.3332,-140.9909 997.8331,-150.991 1001.3332,-140.991 994.3332,-140.9909"/>
</g>
<!-- DropdownDirective -->
<g id="node7" class="node">
<title>DropdownDirective</title>
<polygon fill="#ffffb3" stroke="#000000" points="959.9566,-122 832.0434,-122 832.0434,-86 959.9566,-86 959.9566,-122"/>
<text text-anchor="middle" x="896" y="-99.8" font-family="Times,serif" font-size="14.00" fill="#000000">DropdownDirective</text>
</g>
<!-- DropdownDirective&#45;&gt;AppModule -->
<g id="edge7" class="edge">
<title>DropdownDirective&#45;&gt;AppModule</title>
<path fill="none" stroke="#000000" d="M947.0751,-122.1061C947.0751,-122.1061 947.0751,-140.991 947.0751,-140.991"/>
<polygon fill="#000000" stroke="#000000" points="943.5751,-140.9909 947.0751,-150.991 950.5751,-140.991 943.5751,-140.9909"/>
</g>
<!-- AsideComponent -->
<g id="node8" class="node">
<title>AsideComponent</title>
<polygon fill="#ffffb3" stroke="#000000" points="813.9888,-122 700.0112,-122 700.0112,-86 813.9888,-86 813.9888,-122"/>
<text text-anchor="middle" x="757" y="-99.8" font-family="Times,serif" font-size="14.00" fill="#000000">AsideComponent</text>
</g>
<!-- AsideComponent&#45;&gt;AppModule -->
<g id="edge8" class="edge">
<title>AsideComponent&#45;&gt;AppModule</title>
<path fill="none" stroke="#000000" d="M757,-122.2396C757,-137.5706 757,-157 757,-157 757,-157 924.2923,-157 924.2923,-157"/>
<polygon fill="#000000" stroke="#000000" points="924.2923,-160.5001 934.2923,-157 924.2923,-153.5001 924.2923,-160.5001"/>
</g>
<!-- PageNotFoundComponent -->
<g id="node9" class="node">
<title>PageNotFoundComponent</title>
<polygon fill="#ffffb3" stroke="#000000" points="681.8243,-122 516.1757,-122 516.1757,-86 681.8243,-86 681.8243,-122"/>
<text text-anchor="middle" x="599" y="-99.8" font-family="Times,serif" font-size="14.00" fill="#000000">PageNotFoundComponent</text>
</g>
<!-- PageNotFoundComponent&#45;&gt;AppModule -->
<g id="edge9" class="edge">
<title>PageNotFoundComponent&#45;&gt;AppModule</title>
<path fill="none" stroke="#000000" d="M599,-122.0225C599,-139.3734 599,-163 599,-163 599,-163 924.214,-163 924.214,-163"/>
<polygon fill="#000000" stroke="#000000" points="924.214,-166.5001 934.214,-163 924.2139,-159.5001 924.214,-166.5001"/>
</g>
<!-- HeaderComponent -->
<g id="node10" class="node">
<title>HeaderComponent</title>
<polygon fill="#ffffb3" stroke="#000000" points="497.7437,-122 376.2563,-122 376.2563,-86 497.7437,-86 497.7437,-122"/>
<text text-anchor="middle" x="437" y="-99.8" font-family="Times,serif" font-size="14.00" fill="#000000">HeaderComponent</text>
</g>
<!-- HeaderComponent&#45;&gt;AppModule -->
<g id="edge10" class="edge">
<title>HeaderComponent&#45;&gt;AppModule</title>
<path fill="none" stroke="#000000" d="M437,-122.1061C437,-141.3391 437,-169 437,-169 437,-169 924.1541,-169 924.1541,-169"/>
<polygon fill="#000000" stroke="#000000" points="924.1541,-172.5001 934.1541,-169 924.154,-165.5001 924.1541,-172.5001"/>
</g>
<!-- AppComponent  -->
<g id="node13" class="node">
<title>AppComponent </title>
<polygon fill="#80b1d3" stroke="#000000" points="1030.439,-252 921.561,-252 921.561,-216 1030.439,-216 1030.439,-252"/>
<text text-anchor="middle" x="976" y="-229.8" font-family="Times,serif" font-size="14.00" fill="#000000">AppComponent </text>
</g>
<!-- AppModule&#45;&gt;AppComponent  -->
<g id="edge12" class="edge">
<title>AppModule&#45;&gt;AppComponent </title>
<path fill="none" stroke="#000000" stroke-dasharray="1,5" d="M976,-187.1061C976,-187.1061 976,-205.991 976,-205.991"/>
<polygon fill="#000000" stroke="#000000" points="972.5001,-205.9909 976,-215.991 979.5001,-205.991 972.5001,-205.9909"/>
</g>
<!-- AppRoutingModule -->
<g id="node12" class="node">
<title>AppRoutingModule</title>
<polygon fill="#8dd3c7" stroke="#000000" points="352.2744,-122 349.2744,-126 328.2744,-126 325.2744,-122 223.7256,-122 223.7256,-86 352.2744,-86 352.2744,-122"/>
<text text-anchor="middle" x="288" y="-99.8" font-family="Times,serif" font-size="14.00" fill="#000000">AppRoutingModule</text>
</g>
<!-- AppRoutingModule&#45;&gt;AppModule -->
<g id="edge11" class="edge">
<title>AppRoutingModule&#45;&gt;AppModule</title>
<path fill="none" stroke="#000000" d="M288,-122.2843C288,-143.3211 288,-175 288,-175 288,-175 924.2554,-175 924.2554,-175"/>
<polygon fill="#000000" stroke="#000000" points="924.2554,-178.5001 934.2554,-175 924.2553,-171.5001 924.2554,-178.5001"/>
</g>
<!-- MainLayoutService -->
<g id="node14" class="node">
<title>MainLayoutService</title>
<ellipse fill="#fdb462" stroke="#000000" cx="112" cy="-104" rx="87.9607" ry="18"/>
<text text-anchor="middle" x="112" y="-99.8" font-family="Times,serif" font-size="14.00" fill="#000000">MainLayoutService</text>
</g>
<!-- MainLayoutService&#45;&gt;AppModule -->
<g id="edge13" class="edge">
<title>MainLayoutService&#45;&gt;AppModule</title>
<path fill="none" stroke="#000000" d="M112,-122.2479C112,-145.0179 112,-181 112,-181 112,-181 924.3275,-181 924.3275,-181"/>
<polygon fill="#000000" stroke="#000000" points="924.3275,-184.5001 934.3275,-181 924.3274,-177.5001 924.3275,-184.5001"/>
</g>
</g>
</svg>
