<?xml version="1.0" encoding="UTF-8" standalone="no"?>
<!DOCTYPE svg PUBLIC "-//W3C//DTD SVG 1.1//EN"
 "http://www.w3.org/Graphics/SVG/1.1/DTD/svg11.dtd">
<!-- Generated by graphviz version 2.40.1 (20161225.0304)
 -->
<!-- Title: dependencies Pages: 1 -->
<svg width="1051pt" height="211pt"
 viewBox="0.00 0.00 1051.00 211.00" xmlns="http://www.w3.org/2000/svg" xmlns:xlink="http://www.w3.org/1999/xlink">
<g id="graph0" class="graph" transform="scale(1 1) rotate(0) translate(4 207)">
<title>dependencies</title>
<polygon fill="#ffffff" stroke="transparent" points="-4,4 -4,-207 1047,-207 1047,4 -4,4"/>
<text text-anchor="start" x="500.5091" y="-42.4" font-family="sans-serif" font-weight="bold" font-size="14.00" fill="#000000">Legend</text>
<polygon fill="#ffffb3" stroke="transparent" points="287.5,-10 287.5,-30 307.5,-30 307.5,-10 287.5,-10"/>
<text text-anchor="start" x="311.129" y="-15.4" font-family="sans-serif" font-size="14.00" fill="#000000"> &#160;Declarations</text>
<polygon fill="#8dd3c7" stroke="transparent" points="400.5,-10 400.5,-30 420.5,-30 420.5,-10 400.5,-10"/>
<text text-anchor="start" x="424.2251" y="-15.4" font-family="sans-serif" font-size="14.00" fill="#000000"> &#160;Module</text>
<polygon fill="#80b1d3" stroke="transparent" points="486.5,-10 486.5,-30 506.5,-30 506.5,-10 486.5,-10"/>
<text text-anchor="start" x="510.2812" y="-15.4" font-family="sans-serif" font-size="14.00" fill="#000000"> &#160;Bootstrap</text>
<polygon fill="#fdb462" stroke="transparent" points="583.5,-10 583.5,-30 603.5,-30 603.5,-10 583.5,-10"/>
<text text-anchor="start" x="607.1732" y="-15.4" font-family="sans-serif" font-size="14.00" fill="#000000"> &#160;Providers</text>
<polygon fill="#fb8072" stroke="transparent" points="679.5,-10 679.5,-30 699.5,-30 699.5,-10 679.5,-10"/>
<text text-anchor="start" x="703.2258" y="-15.4" font-family="sans-serif" font-size="14.00" fill="#000000"> &#160;Exports</text>
<g id="clust1" class="cluster">
<title>cluster_ContactsModule</title>
<polygon fill="none" stroke="#000000" stroke-dasharray="1,5" points="8,-70 8,-195 1035,-195 1035,-70 8,-70"/>
</g>
<g id="clust2" class="cluster">
<title>cluster_ContactsModule_declarations</title>
<polygon fill="none" stroke="#000000" points="603,-78 603,-130 1027,-130 1027,-78 603,-78"/>
</g>
<g id="clust6" class="cluster">
<title>cluster_ContactsModule_imports</title>
<polygon fill="none" stroke="#000000" points="188,-78 188,-130 595,-130 595,-78 188,-78"/>
</g>
<g id="clust9" class="cluster">
<title>cluster_ContactsModule_providers</title>
<polygon fill="none" stroke="#000000" points="16,-78 16,-130 180,-130 180,-78 16,-78"/>
</g>
<!-- ContactsComponent -->
<g id="node1" class="node">
<title>ContactsComponent</title>
<polygon fill="#ffffb3" stroke="#000000" points="1019.3244,-122 888.6756,-122 888.6756,-86 1019.3244,-86 1019.3244,-122"/>
<text text-anchor="middle" x="954" y="-99.8" font-family="Times,serif" font-size="14.00" fill="#000000">ContactsComponent</text>
</g>
<!-- ContactsModule -->
<g id="node4" class="node">
<title>ContactsModule</title>
<polygon fill="#8dd3c7" stroke="#000000" points="592.0424,-187 589.0424,-191 568.0424,-191 565.0424,-187 483.9576,-187 483.9576,-151 592.0424,-151 592.0424,-187"/>
<text text-anchor="middle" x="538" y="-164.8" font-family="Times,serif" font-size="14.00" fill="#000000">ContactsModule</text>
</g>
<!-- ContactsComponent&#45;&gt;ContactsModule -->
<g id="edge1" class="edge">
<title>ContactsComponent&#45;&gt;ContactsModule</title>
<path fill="none" stroke="#000000" d="M954,-122.2921C954,-144.2057 954,-178 954,-178 954,-178 602.3847,-178 602.3847,-178"/>
<polygon fill="#000000" stroke="#000000" points="602.3848,-174.5001 592.3847,-178 602.3847,-181.5001 602.3848,-174.5001"/>
</g>
<!-- GroupsComponent -->
<g id="node2" class="node">
<title>GroupsComponent</title>
<polygon fill="#ffffb3" stroke="#000000" points="871.045,-122 748.955,-122 748.955,-86 871.045,-86 871.045,-122"/>
<text text-anchor="middle" x="810" y="-99.8" font-family="Times,serif" font-size="14.00" fill="#000000">GroupsComponent</text>
</g>
<!-- GroupsComponent&#45;&gt;ContactsModule -->
<g id="edge2" class="edge">
<title>GroupsComponent&#45;&gt;ContactsModule</title>
<path fill="none" stroke="#000000" d="M810,-122.1061C810,-141.3391 810,-169 810,-169 810,-169 602.0637,-169 602.0637,-169"/>
<polygon fill="#000000" stroke="#000000" points="602.0637,-165.5001 592.0637,-169 602.0636,-172.5001 602.0637,-165.5001"/>
</g>
<!-- ContactsFilterPipe -->
<g id="node3" class="node">
<title>ContactsFilterPipe</title>
<polygon fill="#ffffb3" stroke="#000000" points="731.2092,-122 610.7908,-122 610.7908,-86 731.2092,-86 731.2092,-122"/>
<text text-anchor="middle" x="671" y="-99.8" font-family="Times,serif" font-size="14.00" fill="#000000">ContactsFilterPipe</text>
</g>
<!-- ContactsFilterPipe&#45;&gt;ContactsModule -->
<g id="edge3" class="edge">
<title>ContactsFilterPipe&#45;&gt;ContactsModule</title>
<path fill="none" stroke="#000000" d="M671,-122.027C671,-138.3976 671,-160 671,-160 671,-160 602.0962,-160 602.0962,-160"/>
<polygon fill="#000000" stroke="#000000" points="602.0962,-156.5001 592.0962,-160 602.0962,-163.5001 602.0962,-156.5001"/>
</g>
<!-- SharedModule -->
<g id="node5" class="node">
<title>SharedModule</title>
<polygon fill="#8dd3c7" stroke="#000000" points="587.4231,-122 584.4231,-126 563.4231,-126 560.4231,-122 488.5769,-122 488.5769,-86 587.4231,-86 587.4231,-122"/>
<text text-anchor="middle" x="538" y="-99.8" font-family="Times,serif" font-size="14.00" fill="#000000">SharedModule</text>
</g>
<!-- SharedModule&#45;&gt;ContactsModule -->
<g id="edge4" class="edge">
<title>SharedModule&#45;&gt;ContactsModule</title>
<path fill="none" stroke="#000000" d="M538,-122.1061C538,-122.1061 538,-140.991 538,-140.991"/>
<polygon fill="#000000" stroke="#000000" points="534.5001,-140.9909 538,-150.991 541.5001,-140.991 534.5001,-140.9909"/>
</g>
<!-- ContactsRoutingModule -->
<g id="node6" class="node">
<title>ContactsRoutingModule</title>
<polygon fill="#8dd3c7" stroke="#000000" points="470.6596,-122 467.6596,-126 446.6596,-126 443.6596,-122 317.3404,-122 317.3404,-86 470.6596,-86 470.6596,-122"/>
<text text-anchor="middle" x="394" y="-99.8" font-family="Times,serif" font-size="14.00" fill="#000000">ContactsRoutingModule</text>
</g>
<!-- ContactsRoutingModule&#45;&gt;ContactsModule -->
<g id="edge5" class="edge">
<title>ContactsRoutingModule&#45;&gt;ContactsModule</title>
<path fill="none" stroke="#000000" d="M394,-122.027C394,-138.3976 394,-160 394,-160 394,-160 473.5598,-160 473.5598,-160"/>
<polygon fill="#000000" stroke="#000000" points="473.5598,-163.5001 483.5598,-160 473.5597,-156.5001 473.5598,-163.5001"/>
</g>
<!-- ContactModule -->
<g id="node7" class="node">
<title>ContactModule</title>
<polygon fill="#8dd3c7" stroke="#000000" points="299.5968,-122 296.5968,-126 275.5968,-126 272.5968,-122 196.4032,-122 196.4032,-86 299.5968,-86 299.5968,-122"/>
<text text-anchor="middle" x="248" y="-99.8" font-family="Times,serif" font-size="14.00" fill="#000000">ContactModule</text>
</g>
<!-- ContactModule&#45;&gt;ContactsModule -->
<g id="edge6" class="edge">
<title>ContactModule&#45;&gt;ContactsModule</title>
<path fill="none" stroke="#000000" d="M248,-122.1061C248,-141.3391 248,-169 248,-169 248,-169 473.7934,-169 473.7934,-169"/>
<polygon fill="#000000" stroke="#000000" points="473.7934,-172.5001 483.7934,-169 473.7934,-165.5001 473.7934,-172.5001"/>
</g>
<!-- ContactsService -->
<g id="node8" class="node">
<title>ContactsService</title>
<ellipse fill="#fdb462" stroke="#000000" cx="98" cy="-104" rx="73.5714" ry="18"/>
<text text-anchor="middle" x="98" y="-99.8" font-family="Times,serif" font-size="14.00" fill="#000000">ContactsService</text>
</g>
<!-- ContactsService&#45;&gt;ContactsModule -->
<g id="edge7" class="edge">
<title>ContactsService&#45;&gt;ContactsModule</title>
<path fill="none" stroke="#000000" d="M98,-122.2921C98,-144.2057 98,-178 98,-178 98,-178 473.6061,-178 473.6061,-178"/>
<polygon fill="#000000" stroke="#000000" points="473.6061,-181.5001 483.6061,-178 473.606,-174.5001 473.6061,-181.5001"/>
</g>
</g>
</svg>
