<?xml version="1.0" encoding="UTF-8" standalone="no"?>
<!DOCTYPE svg PUBLIC "-//W3C//DTD SVG 1.1//EN"
 "http://www.w3.org/Graphics/SVG/1.1/DTD/svg11.dtd">
<!-- Generated by graphviz version 2.40.1 (20161225.0304)
 -->
<!-- Title: dependencies Pages: 1 -->
<svg width="990pt" height="211pt"
 viewBox="0.00 0.00 990.00 211.00" xmlns="http://www.w3.org/2000/svg" xmlns:xlink="http://www.w3.org/1999/xlink">
<g id="graph0" class="graph" transform="scale(1 1) rotate(0) translate(4 207)">
<title>dependencies</title>
<polygon fill="#ffffff" stroke="transparent" points="-4,4 -4,-207 986,-207 986,4 -4,4"/>
<text text-anchor="start" x="470.0091" y="-42.4" font-family="sans-serif" font-weight="bold" font-size="14.00" fill="#000000">Legend</text>
<polygon fill="#ffffb3" stroke="transparent" points="257,-10 257,-30 277,-30 277,-10 257,-10"/>
<text text-anchor="start" x="280.629" y="-15.4" font-family="sans-serif" font-size="14.00" fill="#000000"> &#160;Declarations</text>
<polygon fill="#8dd3c7" stroke="transparent" points="370,-10 370,-30 390,-30 390,-10 370,-10"/>
<text text-anchor="start" x="393.7251" y="-15.4" font-family="sans-serif" font-size="14.00" fill="#000000"> &#160;Module</text>
<polygon fill="#80b1d3" stroke="transparent" points="456,-10 456,-30 476,-30 476,-10 456,-10"/>
<text text-anchor="start" x="479.7812" y="-15.4" font-family="sans-serif" font-size="14.00" fill="#000000"> &#160;Bootstrap</text>
<polygon fill="#fdb462" stroke="transparent" points="553,-10 553,-30 573,-30 573,-10 553,-10"/>
<text text-anchor="start" x="576.6732" y="-15.4" font-family="sans-serif" font-size="14.00" fill="#000000"> &#160;Providers</text>
<polygon fill="#fb8072" stroke="transparent" points="649,-10 649,-30 669,-30 669,-10 649,-10"/>
<text text-anchor="start" x="672.7258" y="-15.4" font-family="sans-serif" font-size="14.00" fill="#000000"> &#160;Exports</text>
<g id="clust1" class="cluster">
<title>cluster_RootModule</title>
<polygon fill="none" stroke="#000000" stroke-dasharray="1,5" points="8,-70 8,-195 974,-195 974,-70 8,-70"/>
</g>
<g id="clust2" class="cluster">
<title>cluster_RootModule_declarations</title>
<polygon fill="none" stroke="#000000" points="652,-78 652,-130 966,-130 966,-78 652,-78"/>
</g>
<g id="clust5" class="cluster">
<title>cluster_RootModule_imports</title>
<polygon fill="none" stroke="#000000" points="380,-78 380,-130 644,-130 644,-78 380,-78"/>
</g>
<g id="clust8" class="cluster">
<title>cluster_RootModule_providers</title>
<polygon fill="none" stroke="#000000" points="16,-78 16,-130 372,-130 372,-78 16,-78"/>
</g>
<!-- CompaniesComponent -->
<g id="node1" class="node">
<title>CompaniesComponent</title>
<polygon fill="#ffffb3" stroke="#000000" points="958.3244,-122 813.6756,-122 813.6756,-86 958.3244,-86 958.3244,-122"/>
<text text-anchor="middle" x="886" y="-99.8" font-family="Times,serif" font-size="14.00" fill="#000000">CompaniesComponent</text>
</g>
<!-- RootModule -->
<g id="node3" class="node">
<title>RootModule</title>
<polygon fill="#8dd3c7" stroke="#000000" points="563.2773,-187 560.2773,-191 539.2773,-191 536.2773,-187 476.7227,-187 476.7227,-151 563.2773,-151 563.2773,-187"/>
<text text-anchor="middle" x="520" y="-164.8" font-family="Times,serif" font-size="14.00" fill="#000000">RootModule</text>
</g>
<!-- CompaniesComponent&#45;&gt;RootModule -->
<g id="edge1" class="edge">
<title>CompaniesComponent&#45;&gt;RootModule</title>
<path fill="none" stroke="#000000" d="M886,-122.2843C886,-143.3211 886,-175 886,-175 886,-175 573.4223,-175 573.4223,-175"/>
<polygon fill="#000000" stroke="#000000" points="573.4223,-171.5001 563.4223,-175 573.4222,-178.5001 573.4223,-171.5001"/>
</g>
<!-- CompanyComponent -->
<g id="node2" class="node">
<title>CompanyComponent</title>
<polygon fill="#ffffb3" stroke="#000000" points="795.7744,-122 660.2256,-122 660.2256,-86 795.7744,-86 795.7744,-122"/>
<text text-anchor="middle" x="728" y="-99.8" font-family="Times,serif" font-size="14.00" fill="#000000">CompanyComponent</text>
</g>
<!-- CompanyComponent&#45;&gt;RootModule -->
<g id="edge2" class="edge">
<title>CompanyComponent&#45;&gt;RootModule</title>
<path fill="none" stroke="#000000" d="M728,-122.0225C728,-139.3734 728,-163 728,-163 728,-163 573.3504,-163 573.3504,-163"/>
<polygon fill="#000000" stroke="#000000" points="573.3505,-159.5001 563.3504,-163 573.3504,-166.5001 573.3505,-159.5001"/>
</g>
<!-- SharedModule -->
<g id="node4" class="node">
<title>SharedModule</title>
<polygon fill="#8dd3c7" stroke="#000000" points="636.4231,-122 633.4231,-126 612.4231,-126 609.4231,-122 537.5769,-122 537.5769,-86 636.4231,-86 636.4231,-122"/>
<text text-anchor="middle" x="587" y="-99.8" font-family="Times,serif" font-size="14.00" fill="#000000">SharedModule</text>
</g>
<!-- SharedModule&#45;&gt;RootModule -->
<g id="edge3" class="edge">
<title>SharedModule&#45;&gt;RootModule</title>
<path fill="none" stroke="#000000" d="M550.5887,-122.1061C550.5887,-122.1061 550.5887,-140.991 550.5887,-140.991"/>
<polygon fill="#000000" stroke="#000000" points="547.0888,-140.9909 550.5887,-150.991 554.0888,-140.991 547.0888,-140.9909"/>
</g>
<!-- RootRoutingModule -->
<g id="node5" class="node">
<title>RootRoutingModule</title>
<polygon fill="#8dd3c7" stroke="#000000" points="519.8948,-122 516.8948,-126 495.8948,-126 492.8948,-122 388.1052,-122 388.1052,-86 519.8948,-86 519.8948,-122"/>
<text text-anchor="middle" x="454" y="-99.8" font-family="Times,serif" font-size="14.00" fill="#000000">RootRoutingModule</text>
</g>
<!-- RootRoutingModule&#45;&gt;RootModule -->
<g id="edge4" class="edge">
<title>RootRoutingModule&#45;&gt;RootModule</title>
<path fill="none" stroke="#000000" d="M498.2795,-122.1061C498.2795,-122.1061 498.2795,-140.991 498.2795,-140.991"/>
<polygon fill="#000000" stroke="#000000" points="494.7795,-140.9909 498.2795,-150.991 501.7795,-140.991 494.7795,-140.9909"/>
</g>
<!-- CompaniesService -->
<g id="node6" class="node">
<title>CompaniesService</title>
<ellipse fill="#fdb462" stroke="#000000" cx="281" cy="-104" rx="83.3847" ry="18"/>
<text text-anchor="middle" x="281" y="-99.8" font-family="Times,serif" font-size="14.00" fill="#000000">CompaniesService</text>
</g>
<!-- CompaniesService&#45;&gt;RootModule -->
<g id="edge5" class="edge">
<title>CompaniesService&#45;&gt;RootModule</title>
<path fill="none" stroke="#000000" d="M281,-122.0225C281,-139.3734 281,-163 281,-163 281,-163 466.7189,-163 466.7189,-163"/>
<polygon fill="#000000" stroke="#000000" points="466.7189,-166.5001 476.7189,-163 466.7189,-159.5001 466.7189,-166.5001"/>
</g>
<!-- CompanyService -->
<g id="node7" class="node">
<title>CompanyService</title>
<ellipse fill="#fdb462" stroke="#000000" cx="102" cy="-104" rx="77.5897" ry="18"/>
<text text-anchor="middle" x="102" y="-99.8" font-family="Times,serif" font-size="14.00" fill="#000000">CompanyService</text>
</g>
<!-- CompanyService&#45;&gt;RootModule -->
<g id="edge6" class="edge">
<title>CompanyService&#45;&gt;RootModule</title>
<path fill="none" stroke="#000000" d="M102,-122.2843C102,-143.3211 102,-175 102,-175 102,-175 466.4496,-175 466.4496,-175"/>
<polygon fill="#000000" stroke="#000000" points="466.4496,-178.5001 476.4496,-175 466.4496,-171.5001 466.4496,-178.5001"/>
</g>
</g>
</svg>
